<?xml version="1.0" encoding="UTF-8"?>
<svg width="251px" height="252px" viewBox="0 0 251 252" version="1.1" xmlns="http://www.w3.org/2000/svg" xmlns:xlink="http://www.w3.org/1999/xlink">
    <!-- Generator: Sketch 53.2 (72643) - https://sketchapp.com -->
    <title>logo</title>
    <desc>Created with Sketch.</desc>
    <g id="web" stroke="none" stroke-width="1" fill="none" fill-rule="evenodd">
        <g id="HOMEPAGE" transform="translate(-675.000000, -12453.000000)" fill="#28E6D6">
            <g id="STAGE-#contact" transform="translate(0.000000, 11354.000000)">
                <g id="STAGE-#contacts_slider" transform="translate(0.000000, 910.000000)">
                    <path d="M760.671198,367 L726.2441,370.296701 L720,411.529981 L723.304718,412 L729.169913,373.265906 L761,370.21786 L760.671198,367 Z M768.227005,372 L735.252375,379.968962 L735,421.98013 L738.27627,422 L738.512775,382.536291 L769,375.16853 L768.227005,372 Z M786,381.826375 L784.332472,379 L754,395.658998 L765.717976,436 L768.962995,435.122569 L757.955837,397.228924 L786,381.826375 Z M776,379.025542 L774.818983,376 L744,388.435288 L749.496405,430 L752.669293,429.56669 L747.506034,390.523517 L776,379.025542 Z M751.864726,364.731364 L752,361.412611 L717.934498,360 L706,401.065871 L709.159147,402 L720.369439,363.425659 L751.864726,364.731364 Z M734.168121,331.206696 L736,328.457325 L708.245915,309 L677,337.512301 L679.156972,340 L708.508626,313.216395 L734.168121,331.206696 Z M737.538943,340.367268 L739,337.371537 L708.453059,322 L681,354.834965 L683.509151,357 L709.296985,326.155048 L737.538943,340.367268 Z M745.408238,356.365926 L746,353.12702 L712.475226,347 L695,385.644155 L697.997883,387 L714.412976,350.700799 L745.408238,356.365926 Z M732.80145,323.130142 L735,320.626918 L710.01203,297 L675,321.180897 L676.80934,324 L709.698316,301.284211 L732.80145,323.130142 Z M740.964019,349.00851 L742,345.850681 L709.669277,335 L687,371.220927 L689.778032,373 L711.072681,338.97614 L740.964019,349.00851 Z M795,382.576317 L792.989804,380 L766,400.589177 L783.015959,439 L786.030483,437.694551 L770.046619,401.612381 L795,382.576317 Z M805,382.320415 L802.662732,380 L779,404.587169 L801.100638,441 L803.882176,439.257484 L783.122007,405.053534 L805,382.320415 Z M860.133325,349 L857,349.668947 L863.688492,383.257013 L904.869049,385 L905,381.691998 L866.317006,380.054035 L860.133325,349 Z M855.175554,357 L852,357.209584 L854.096154,391.358427 L894.429226,399 L895,395.749376 L857.114099,388.571883 L855.175554,357 Z M885.943029,346.940864 L867.662089,321 L865,322.943364 L884.772959,351 L924,335.148899 L922.79103,332.050247 L885.943029,346.940864 Z M880.532254,359.161722 L865.914075,331 L863,332.540187 L878.811258,363 L920,352.900334 L919.223804,349.674189 L880.532254,359.161722 Z M873.52796,370.386306 L863.061746,340 L860,341.133491 L871.320536,374 L913,369.719267 L912.679502,366.367229 L873.52796,370.386306 Z M824.334345,378.547828 L821.400067,377 L805,406.711777 L836.753965,435 L839,432.5904 L809.171654,406.017572 L824.334345,378.547828 Z M815.167863,381.947309 L812.481296,380 L792,407.407097 L819.431759,440 L822,437.902267 L796.23262,407.286962 L815.167863,381.947309 Z M847.970032,364.247656 L844.631376,364 L842,397.749639 L882.946403,411 L884,407.898428 L845.536925,395.4518 L847.970032,364.247656 Z M834.399389,376.126643 L831.21934,375 L819,406.45489 L855.08667,430 L857,427.32511 L823.102794,405.207283 L834.399389,376.126643 Z M840.384143,369.702453 L837.206693,369 L830,402.224132 L867.556628,421 L869,418.057291 L833.720747,400.420023 L840.384143,369.702453 Z M756.685184,262.530368 L759.983813,263 L765,229.845671 L725.267461,214 L724,216.991695 L761.322643,231.87788 L756.685184,262.530368 Z M836.5606,260 L870.734714,254.435166 L874,213.242973 L870.662547,213 L867.595459,251.693829 L836,256.839347 L836.5606,260 Z M828,252.902966 L829.013102,256 L862,245.79472 L859.252615,204 L855.917735,204.20823 L858.498011,243.467628 L828,252.902966 Z M868.032337,303.694021 L866,306.228641 L892.597421,327 L926,301.558355 L923.999386,299 L892.622493,322.898855 L868.032337,303.694021 Z M820,249.100979 L821.418162,252 L852,237.583285 L843.472603,197 L840.264722,197.649755 L848.274702,235.771209 L820,249.100979 Z M866.662066,294.319952 L865,297.106026 L894.388511,314 L924,284.255489 L921.648446,282 L893.832605,309.939414 L866.662066,294.319952 Z M889.983136,334.858326 L868.366579,312 L866,314.277276 L889.380632,339 L926,317.968958 L924.381569,315.102003 L889.983136,334.858326 Z M810,247.298293 L811.871846,250 L841,231.376575 L826.357797,192 L823.175765,193.091737 L836.93061,230.079471 L810,247.298293 Z M862.237193,286.597069 L861,289.715665 L892.161094,303 L917,267.998789 L914.379734,266 L891.046908,298.878584 L862.237193,286.597069 Z M858.797376,277.327594 L858,280.524856 L890.305561,289 L910,251.567427 L907.16617,250 L888.666538,285.161635 L858.797376,277.327594 Z M852.359448,269.768817 L852,273.126472 L885.446422,277 L900,236.175892 L896.953324,235 L883.282627,273.349295 L852.359448,269.768817 Z M845.094114,266 L878.984465,265.044555 L888,224.685395 L884.802672,224 L876.333409,261.911176 L845,262.793973 L845.094114,266 Z M730.46227,254.393517 L738.866427,285 L742,284.104813 L732.909436,251 L691,252.236977 L691.094572,255.555808 L730.46227,254.393517 Z M742.741277,277 L746,276.560807 L741.468202,242.696062 L699.363222,238 L699,241.278481 L738.551124,245.689996 L742.741277,277 Z M748.491022,269.98021 L751.790193,270 L752,236.365836 L710.817576,226 L710,229.145576 L748.685364,238.882702 L748.491022,269.98021 Z M715.75962,276.949339 L732.212926,304 L735,302.257874 L717.20458,273 L677,285.968991 L677.993154,289.130743 L715.75962,276.949339 Z M723.477846,265.614771 L736.010382,294 L739,292.702546 L725.444753,262 L684,268.994928 L684.547043,272.184967 L723.477846,265.614771 Z M764.998253,257.076564 L768.216844,258 L778,225.370372 L740.695789,204 L739,206.833411 L774.04281,226.907381 L764.998253,257.076564 Z M790.877267,247.848421 L793.440736,250 L816,223.778243 L790.733771,189 L788,190.936681 L811.73456,223.605909 L790.877267,247.848421 Z M780.749496,248.252252 L783.560335,250 L802,221.434071 L772.406914,191 L770,193.253809 L797.798038,221.842695 L780.749496,248.252252 Z M711.724748,289.030261 L731.507434,313 L734,310.926453 L712.603495,285 L675,303.137189 L676.402353,306.068195 L711.724748,289.030261 Z M801,246.55009 L803.214075,249 L829,226.427107 L809.073329,189 L806.122618,190.523444 L824.840476,225.680502 L801,246.55009 Z M784.975658,224.121054 L754,199.564732 L756.024663,197 L789,223.140948 L775.063937,254 L772.09093,252.650437 L784.975658,224.121054 Z" id="logo"></path>
                </g>
            </g>
        </g>
    </g>
</svg>